<?xml version="1.0" encoding="iso-8859-1"?>
<!-- Generator: Adobe Illustrator 18.0.0, SVG Export Plug-In . SVG Version: 6.00 Build 0)  -->
<!DOCTYPE svg PUBLIC "-//W3C//DTD SVG 1.1//EN" "http://www.w3.org/Graphics/SVG/1.1/DTD/svg11.dtd">
<svg version="1.1" id="Capa_1" xmlns="http://www.w3.org/2000/svg" xmlns:xlink="http://www.w3.org/1999/xlink" x="0px" y="0px"
	 viewBox="0 0 431.841 431.841" style="enable-background:new 0 0 431.841 431.841;" xml:space="preserve">
<path d="M394.467,37.371c-49.832-49.824-130.6-49.816-180.417,0.016c-33.539,33.524-44.391,81.053-32.783,123.755L81.078,274.04
	C44.872,314.839,17.481,362.7,0.65,414.604l-0.017,0.039c-1.51,4.687-0.275,9.841,3.222,13.34c3.499,3.5,8.664,4.732,13.364,3.206
	l55.228-17.903c5.256-1.711,9.51-5.671,11.545-10.812c2.065-5.141,1.74-10.944-0.894-15.807c-1.326-2.481-0.88-5.526,1.109-7.491
	c2.003-1.981,5.04-2.404,7.491-1.04l0.339,0.169c12.839,7.076,28.747,5.304,39.721-4.438c12.053-10.674,15.15-28.215,7.507-42.372
	l-0.355-0.639c-1.325-2.467-0.879-5.504,1.109-7.491c1.989-1.965,5.04-2.382,7.491-1.04l12.27,6.759
	c8.307,4.577,18.604,3.43,25.693-2.876c7.799-6.912,9.788-18.265,4.855-27.413l-6.767-12.577c-1.325-2.467-0.894-5.52,1.094-7.492
	c1.989-1.973,5.042-2.404,7.491-1.04l15.753,8.67c8.309,4.586,18.604,3.422,25.71-2.866l37.069-32.901
	c42.712,11.615,90.263,0.748,123.787-32.792C444.299,167.978,444.299,87.204,394.467,37.371z M371.902,138.571
	c-1.372,1.987-3.577,3.267-5.98,3.483c-2.42,0.214-4.794-0.647-6.505-2.358l-65.831-65.855c-1.711-1.711-2.574-4.1-2.358-6.512
	c0.217-2.412,1.495-4.601,3.483-5.98c21.641-14.99,51.543-12.878,70.81,6.397C384.788,87.02,386.915,116.93,371.902,138.571z"/>
<g>
</g>
<g>
</g>
<g>
</g>
<g>
</g>
<g>
</g>
<g>
</g>
<g>
</g>
<g>
</g>
<g>
</g>
<g>
</g>
<g>
</g>
<g>
</g>
<g>
</g>
<g>
</g>
<g>
</g>
</svg>
